<svg width="48" height="48" viewBox="0 0 48 48" fill="none" xmlns="http://www.w3.org/2000/svg">
<path d="M3 5C3 3.89543 3.89543 3 5 3H19C20.1046 3 21 3.89543 21 5V19C21 20.1046 20.1046 21 19 21H5C3.89543 21 3 20.1046 3 19V5Z" stroke="#1A6AFF" stroke-width="2"/>
<path d="M3 29C3 27.8954 3.89543 27 5 27H19C20.1046 27 21 27.8954 21 29V43C21 44.1046 20.1046 45 19 45H5C3.89543 45 3 44.1046 3 43V29Z" stroke="#1A6AFF" stroke-width="2"/>
<path d="M27 5C27 3.89543 27.8954 3 29 3H43C44.1046 3 45 3.89543 45 5V19C45 20.1046 44.1046 21 43 21H29C27.8954 21 27 20.1046 27 19V5Z" stroke="#1A6AFF" stroke-width="2"/>
<path d="M27 29C27 27.8954 27.8954 27 29 27H43C44.1046 27 45 27.8954 45 29V43C45 44.1046 44.1046 45 43 45H29C27.8954 45 27 44.1046 27 43V29Z" stroke="#1A6AFF" stroke-width="2"/>
<rect x="31" y="7" width="10" height="10" rx="1" fill="#1A6AFF"/>
<rect x="7" y="31" width="10" height="10" rx="1" fill="#1A6AFF"/>
</svg>
